<svg width="22" height="22" viewBox="0 0 22 22" fill="none" xmlns="http://www.w3.org/2000/svg">
<path d="M20.8613 9.08759L12.0185 9.08716C11.628 9.08716 11.3115 9.40832 11.3115 9.80458V12.6713C11.3115 13.0675 11.628 13.3887 12.0185 13.3887H16.9982C16.4529 14.8248 15.4352 16.0275 14.1367 16.7917L16.2601 20.5219C19.6662 18.5228 21.6799 15.0152 21.6799 11.0887C21.6799 10.5296 21.6393 10.13 21.5581 9.67993C21.4964 9.33802 21.2039 9.08759 20.8613 9.08759Z" fill="#167EE6"/>
<path d="M10.839 17.6962C8.40197 17.6962 6.27451 16.345 5.13189 14.3455L1.4563 16.4954C3.32678 19.7853 6.8308 22.0007 10.839 22.0007C12.8052 22.0007 14.6605 21.4634 16.2588 20.5272V20.522L14.1355 16.7918C13.1642 17.3635 12.0403 17.6962 10.839 17.6962Z" fill="#12B347"/>
<path d="M16.2596 20.5271V20.522L14.1362 16.7917C13.165 17.3634 12.0411 17.6961 10.8397 17.6961V22.0006C12.806 22.0006 14.6614 21.4633 16.2596 20.5271Z" fill="#0F993E"/>
<path d="M4.24163 11.0004C4.24163 9.78139 4.56944 8.64093 5.13264 7.65533L1.45705 5.50537C0.529367 7.1222 0 8.9999 0 11.0004C0 13.0009 0.529367 14.8786 1.45705 16.4954L5.13264 14.3455C4.56944 13.3599 4.24163 12.2194 4.24163 11.0004Z" fill="#FFD500"/>
<path d="M10.839 4.30447C12.4281 4.30447 13.8878 4.87751 15.028 5.83071C15.3093 6.06584 15.7181 6.04887 15.9757 5.7874L17.9773 3.75621C18.2696 3.45955 18.2488 2.97395 17.9365 2.69902C16.0262 1.01723 13.5407 0 10.839 0C6.8308 0 3.32678 2.2154 1.4563 5.50526L5.13189 7.65522C6.2745 5.6557 8.40197 4.30447 10.839 4.30447Z" fill="#FF4B26"/>
<path d="M15.0288 5.83071C15.31 6.06584 15.7189 6.04887 15.9765 5.7874L17.978 3.75621C18.2703 3.45955 18.2495 2.97395 17.9373 2.69902C16.027 1.01718 13.5415 0 10.8397 0V4.30447C12.4288 4.30447 13.8886 4.87751 15.0288 5.83071Z" fill="#D93F21"/>
</svg>
