<svg width="55" height="52" viewBox="0 0 55 52" fill="none" xmlns="http://www.w3.org/2000/svg">
<path d="M14.9172 41V39.488L20.0832 38.858H22.3932L27.5172 39.488V41H14.9172ZM17.8152 41C17.8712 39.74 17.9132 38.382 17.9412 36.926C17.9692 35.47 17.9832 33.986 17.9832 32.474C17.9832 30.934 17.9832 29.436 17.9832 27.98V26.258C17.9832 24.83 17.9832 23.374 17.9832 21.89C17.9832 20.378 17.9692 18.894 17.9412 17.438C17.9132 15.982 17.8712 14.638 17.8152 13.406H24.4932C24.4652 14.638 24.4372 15.982 24.4092 17.438C24.3812 18.866 24.3532 20.336 24.3252 21.848C24.3252 23.36 24.3252 24.858 24.3252 26.342V27.896C24.3252 29.352 24.3252 30.85 24.3252 32.39C24.3532 33.93 24.3812 35.442 24.4092 36.926C24.4372 38.382 24.4652 39.74 24.4932 41H17.8152ZM36.8412 41.504C35.1332 41.504 33.8032 41.21 32.8512 40.622C31.8992 40.034 31.2692 38.998 30.9612 37.514L29.6172 32.432C29.3932 31.508 29.1132 30.724 28.7772 30.08C28.4692 29.436 28.0492 28.96 27.5172 28.652C26.9852 28.316 26.2992 28.148 25.4592 28.148H21.1332V26.468H25.9212C27.2652 26.468 28.3152 26.216 29.0712 25.712C29.8552 25.18 30.4012 24.48 30.7092 23.612C31.0172 22.716 31.1712 21.75 31.1712 20.714C31.1712 18.838 30.7372 17.438 29.8692 16.514C29.0292 15.562 27.7692 15.086 26.0892 15.086H21.0492V13.406H26.9292C30.4012 13.406 32.9912 14.022 34.6992 15.254C36.4352 16.458 37.3032 18.152 37.3032 20.336C37.3032 21.484 36.9252 22.604 36.1692 23.696C35.4132 24.76 34.2512 25.642 32.6832 26.342C31.1152 27.042 29.0992 27.434 26.6352 27.518V27.14C28.3712 27.196 29.8132 27.364 30.9612 27.644C32.1092 27.924 33.0472 28.316 33.7752 28.82C34.5032 29.296 35.0772 29.912 35.4972 30.668C35.9172 31.396 36.2672 32.264 36.5472 33.272L38.6052 40.328L35.9592 38.858L41.1252 39.488V41C40.5932 41.112 40.1032 41.21 39.6552 41.294C39.2072 41.378 38.7592 41.434 38.3112 41.462C37.8632 41.49 37.3732 41.504 36.8412 41.504ZM14.9172 14.918V13.406H22.0152V15.548H20.0832L14.9172 14.918Z" fill="url(#paint0_linear_105_610)"/>
<rect x="6" y="5" width="44" height="44" stroke="url(#paint1_linear_105_610)" stroke-width="2"/>
<defs>
<linearGradient id="paint0_linear_105_610" x1="27.5" y1="0" x2="27.5" y2="52" gradientUnits="userSpaceOnUse">
<stop stop-color="#DF6A7A"/>
<stop offset="1" stop-color="#E081AA"/>
</linearGradient>
<linearGradient id="paint1_linear_105_610" x1="28" y1="4" x2="28" y2="50" gradientUnits="userSpaceOnUse">
<stop stop-color="#E07C9F"/>
<stop offset="1" stop-color="#DF7087"/>
</linearGradient>
</defs>
</svg>
