<svg width="30" height="29" viewBox="0 0 30 29" fill="#52525B" xmlns="http://www.w3.org/2000/svg">
<path d="M14.1305 1.84626C14.5595 0.717911 16.1777 0.717911 16.6067 1.84627L19.3741 9.51177C19.5677 10.0208 20.061 10.358 20.6122 10.358H27.4124C28.6681 10.358 29.2166 11.9226 28.2294 12.6878L23.3898 17.0423C22.9442 17.3876 22.7712 17.9748 22.9598 18.5019L24.7266 25.9928C25.1568 27.1949 23.7629 28.2291 22.7113 27.488L16.1372 23.3184C15.6774 22.9944 15.0598 22.9944 14.6001 23.3184L8.02597 27.488C6.9743 28.2291 5.58045 27.1949 6.01059 25.9928L7.7774 18.5019C7.96601 17.9748 7.79308 17.3876 7.34745 17.0423L2.50793 12.6878C1.52055 11.9226 2.06915 10.358 3.32483 10.358H10.125C10.6762 10.358 11.1695 10.0208 11.3631 9.51177L14.1305 1.84626Z" stroke="#52525B" stroke-width="2" stroke-linecap="round" stroke-linejoin="round"/>
</svg>
