<svg width="27" height="25" viewBox="0 0 27 25" fill="none" xmlns="http://www.w3.org/2000/svg">
<path d="M13.3687 7.12567V10.8011M13.3687 10.8011V14.4765M13.3687 10.8011H17.0441M13.3687 10.8011H9.6933" stroke="#52525B" stroke-width="2" stroke-linecap="round"/>
<path d="M15.8189 20.6022C20.4392 20.6022 22.7494 20.6022 24.1847 19.1668C25.62 17.7316 25.62 15.4213 25.62 10.8011C25.62 6.18081 25.62 3.87068 24.1847 2.43533C22.7494 1 20.4392 1 15.8189 1H10.9184C6.29812 1 3.98799 1 2.55264 2.43533C1.11731 3.87068 1.11731 6.18081 1.11731 10.8011C1.11731 15.4213 1.11731 17.7316 2.55264 19.1668C3.35288 19.9671 4.42504 20.3211 6.01785 20.4778" stroke="#52525B" stroke-width="2" stroke-linecap="round" stroke-linejoin="round"/>
<path d="M15.8189 20.6022C14.3041 20.6022 12.6363 21.2138 11.1127 22.005C8.6656 23.2756 7.44205 23.9109 6.83912 23.5061C6.23617 23.1012 6.35029 21.8458 6.57854 19.335L6.63041 18.7645" stroke="#52525B" stroke-width="2" stroke-linecap="round"/>
</svg>
