<svg width="30" height="30" viewBox="0 0 30 30" fill="none" xmlns="http://www.w3.org/2000/svg">
<path d="M6.25 16.25V17.3438C6.25 21.5725 9.6075 25 13.75 25" stroke="#52525B" stroke-width="2" stroke-linecap="round" stroke-linejoin="round"/>
<path d="M7.5 11.25C9.57107 11.25 11.25 9.57107 11.25 7.5C11.25 5.42893 9.57107 3.75 7.5 3.75C5.42893 3.75 3.75 5.42893 3.75 7.5C3.75 9.57107 5.42893 11.25 7.5 11.25Z" stroke="#52525B" stroke-width="2" stroke-linecap="round" stroke-linejoin="round"/>
<path d="M22.5 26.25C24.5711 26.25 26.25 24.5711 26.25 22.5C26.25 20.4289 24.5711 18.75 22.5 18.75C20.4289 18.75 18.75 20.4289 18.75 22.5C18.75 24.5711 20.4289 26.25 22.5 26.25Z" stroke="#52525B" stroke-width="2" stroke-linecap="round" stroke-linejoin="round"/>
<path d="M20 11.25L22.5 13.75L25 11.25" stroke="#52525B" stroke-width="2" stroke-linecap="round" stroke-linejoin="round"/>
<path d="M22.5 12.5V11.4062C22.5 7.1775 19.1425 3.75 15 3.75" stroke="#52525B" stroke-width="2" stroke-linecap="round" stroke-linejoin="round"/>
<path d="M3.75 18.75L6.25 16.25L8.75 18.75" stroke="#52525B" stroke-width="2" stroke-linecap="round" stroke-linejoin="round"/>
</svg>
